<?xml version="1.0" encoding="iso-8859-1"?>
<!-- Generator: Adobe Illustrator 18.0.0, SVG Export Plug-In . SVG Version: 6.00 Build 0)  -->
<!DOCTYPE svg PUBLIC "-//W3C//DTD SVG 1.1//EN">
<svg version="1.1" id="Capa_1" xmlns="http://www.w3.org/2000/svg" x="0px" y="0px"
	 viewBox="0 0 60 60" style="enable-background:new 0 0 60 60;" xml:space="preserve">
<g fill="#FFFFFF">
	<path d="M58.109,31.175C59.347,29.401,60,27.351,60,25.247c0-4.622-3.157-8.908-8.043-10.918c-1.803-0.742-3.192-2.176-3.716-3.835
		c-1.334-4.23-4.368-6.635-9.276-7.353c-4.083-0.597-7.917,0.725-10.005,3.451c-0.825,1.078-2.712,1.511-4.579,1.055
		c-1.478-0.36-3.016-0.551-4.572-0.564c-0.056,0-0.11-0.001-0.166-0.001c-6.904,0-12.605,3.692-13.588,8.822
		c-0.342,1.784-0.132,3.566,0.626,5.297c0.896,2.051,0.082,4.262-2.181,5.914C1.599,29.234,0,32.039,0,35.013
		c0,3.946,5.721,6.755,10.52,8.416c2.957,1.022,4.901,2.995,5.333,5.395l0.025,0.139C16.797,53.686,21.767,57,27.812,57
		c0.203,0,0.407-0.004,0.613-0.012c4.588-0.168,8.983-2.109,11.76-5.192c0.855-0.949,2.233-1.478,3.438-1.302
		c2.088,0.298,4.216,0.139,6.33-0.481c4.896-1.433,8.63-5.349,9.294-9.745c0.34-2.252-0.087-4.458-1.235-6.379
		C57.501,33.033,57.538,31.993,58.109,31.175z M57.269,39.969c-0.549,3.642-3.715,6.906-7.878,8.124
		c-1.835,0.538-3.683,0.681-5.482,0.421h-0.001c-1.858-0.267-3.904,0.497-5.208,1.944c-2.421,2.688-6.289,4.383-10.348,4.532
		c-5.297,0.207-9.749-2.5-10.527-6.504c-0.566-3.149-2.99-5.682-6.65-6.948C5.43,39.551,2,37.111,2,35.013
		c0-2.318,1.307-4.55,3.68-6.282c3.028-2.212,4.113-5.404,2.833-8.331c-0.593-1.353-0.759-2.738-0.493-4.118
		c0.801-4.188,5.676-7.199,11.62-7.199c0.051,0,0.101,0.001,0.151,0.001c1.402,0.013,2.787,0.184,4.116,0.508
		c2.656,0.648,5.326-0.068,6.641-1.781c1.646-2.15,4.756-3.178,8.128-2.689c4.13,0.604,6.563,2.503,7.657,5.976
		c0.7,2.219,2.519,4.118,4.863,5.083c4.133,1.7,6.804,5.26,6.804,9.068c0,1.693-0.529,3.347-1.531,4.783
		c-1.027,1.474-1.094,3.345-0.174,4.884C57.202,36.432,57.539,38.18,57.269,39.969z"/>
	<path d="M37.5,17C30.056,17,24,23.055,24,30.5S30.056,44,37.5,44S51,37.944,51,30.5S44.944,17,37.5,17z M37.5,42
		C31.159,42,26,36.841,26,30.5S31.159,19,37.5,19S49,24.159,49,30.5S43.841,42,37.5,42z"/>
	<path d="M37.5,21c-0.952,0-1.893,0.141-2.794,0.418c-0.528,0.163-0.824,0.723-0.662,1.25c0.133,0.43,0.528,0.706,0.956,0.706
		c0.097,0,0.196-0.014,0.294-0.044C36.005,23.111,36.747,23,37.5,23c0.553,0,1-0.447,1-1S38.053,21,37.5,21z"/>
	<path d="M31.379,23.235C29.231,25.046,28,27.693,28,30.5c0,0.553,0.447,1,1,1s1-0.447,1-1c0-2.216,0.973-4.306,2.668-5.735
		c0.422-0.356,0.476-0.987,0.12-1.409C32.432,22.933,31.802,22.879,31.379,23.235z"/>
	<path d="M16.591,12.593c-0.225-0.504-0.814-0.73-1.32-0.508c-2.109,0.939-3.828,2.408-5.107,4.368
		c-0.303,0.463-0.172,1.082,0.29,1.384C10.622,17.947,10.812,18,10.999,18c0.326,0,0.646-0.159,0.838-0.453
		c1.065-1.632,2.494-2.854,4.246-3.634C16.588,13.688,16.814,13.096,16.591,12.593z"/>
	<path d="M19.651,12.995c1.289-0.123,2.189-0.007,2.211-0.005c0.047,0.007,0.093,0.01,0.139,0.01c0.49,0,0.919-0.36,0.989-0.86
		c0.077-0.547-0.304-1.053-0.851-1.13c-0.046-0.006-1.131-0.154-2.682-0.005c-0.55,0.053-0.952,0.542-0.898,1.092
		C18.612,12.646,19.095,13.047,19.651,12.995z"/>
	<path d="M25.876,49.923l-0.149,0.017c-2.33,0.255-4.455-1.334-4.851-3.625c-0.094-0.545-0.612-0.905-1.155-0.815
		c-0.545,0.094-0.909,0.611-0.815,1.155c0.534,3.094,3.239,5.312,6.334,5.312c0.238,0,0.479-0.013,0.722-0.04l0.163-0.019
		c0.548-0.068,0.937-0.568,0.868-1.116S26.43,49.854,25.876,49.923z"/>
	<path d="M19.481,44.852c0.471-0.288,0.619-0.903,0.33-1.375c-0.981-1.604-2.236-2.383-2.29-2.415
		c-0.469-0.292-1.086-0.14-1.374,0.331c-0.289,0.471-0.141,1.086,0.331,1.374c0.009,0.006,0.906,0.576,1.628,1.755
		C18.295,44.83,18.623,45,18.96,45C19.138,45,19.318,44.952,19.481,44.852z"/>
</g>
<g>
</g>
<g>
</g>
<g>
</g>
<g>
</g>
<g>
</g>
<g>
</g>
<g>
</g>
<g>
</g>
<g>
</g>
<g>
</g>
<g>
</g>
<g>
</g>
<g>
</g>
<g>
</g>
<g>
</g>
</svg>
